<mxfile host="app.diagrams.net" agent="Mozilla/5.0 (Windows NT 10.0; Win64; x64) AppleWebKit/537.36 (KHTML, like Gecko) Chrome/106.0.0.0 Safari/537.36" version="26.0.16" pages="3">
  <diagram name="chaos" id="zgRFrtlp1Q119CmvOcFI">
    <mxGraphModel dx="2087" dy="725" grid="1" gridSize="10" guides="1" tooltips="1" connect="1" arrows="1" fold="1" page="1" pageScale="1" pageWidth="827" pageHeight="1169" math="0" shadow="0">
      <root>
        <mxCell id="0" />
        <mxCell id="1" parent="0" />
        <mxCell id="5tDuQ4ynyZppxNNhZH8u-19" value="" style="rounded=1;whiteSpace=wrap;html=1;fillColor=none;dashed=1;strokeWidth=2;" parent="1" vertex="1">
          <mxGeometry y="390" width="250" height="240" as="geometry" />
        </mxCell>
        <mxCell id="5tDuQ4ynyZppxNNhZH8u-14" value="&lt;br&gt;&lt;div&gt;&lt;b style=&quot;background-color: initial;&quot;&gt;&lt;u&gt;DSP&lt;/u&gt;&lt;/b&gt;&lt;span style=&quot;background-color: initial;&quot;&gt;&amp;nbsp;service index:&amp;nbsp;&lt;/span&gt;&lt;br&gt;&lt;/div&gt;&lt;div&gt;&lt;strong&gt;&lt;br&gt;&lt;/strong&gt;&lt;b&gt;&lt;u&gt;Fill Rate&lt;/u&gt;&lt;/b&gt; =&amp;nbsp;&lt;span class=&quot;base&quot;&gt;&lt;span class=&quot;minner&quot;&gt;&lt;span style=&quot;top: 0em;&quot; class=&quot;mopen delimcenter&quot;&gt;&lt;span class=&quot;delimsizing size3&quot;&gt;(fill-ad ad request&lt;/span&gt;&lt;/span&gt;&lt;span class=&quot;mord&quot;&gt;&lt;span class=&quot;mfrac&quot;&gt;&lt;span class=&quot;vlist-t vlist-t2&quot;&gt;&lt;span class=&quot;vlist-r&quot;&gt;&lt;span class=&quot;vlist-s&quot;&gt;​/&amp;nbsp;&lt;/span&gt;&lt;/span&gt;&lt;/span&gt;&lt;/span&gt;&lt;/span&gt;&lt;/span&gt;&lt;/span&gt;&lt;span style=&quot;background-color: initial;&quot;&gt;Total&amp;nbsp;Ad&amp;nbsp;Requests&lt;/span&gt;&lt;span style=&quot;background-color: initial;&quot; class=&quot;base&quot;&gt;&lt;span class=&quot;minner&quot;&gt;&lt;span style=&quot;top: 0em;&quot; class=&quot;mclose delimcenter&quot;&gt;&lt;span class=&quot;delimsizing size3&quot;&gt;)&lt;/span&gt;&lt;/span&gt;&lt;/span&gt;&lt;span style=&quot;margin-right: 0.2222em;&quot; class=&quot;mspace&quot;&gt;&lt;/span&gt;&lt;span class=&quot;mbin&quot;&gt;×&lt;/span&gt;&lt;span style=&quot;margin-right: 0.2222em;&quot; class=&quot;mspace&quot;&gt;&lt;/span&gt;&lt;/span&gt;&lt;span style=&quot;background-color: initial;&quot; class=&quot;base&quot;&gt;&lt;span style=&quot;height: 0.6444em;&quot; class=&quot;strut&quot;&gt;&lt;/span&gt;&lt;span class=&quot;mord&quot;&gt;100. e.g. 60%&lt;br&gt;&lt;b&gt;&lt;u&gt;Fill density&lt;/u&gt;&lt;/b&gt; =&amp;nbsp;&amp;nbsp;&lt;/span&gt;&lt;/span&gt;&lt;span style=&quot;background-color: initial;&quot; class=&quot;base&quot;&gt;&lt;span class=&quot;minner&quot;&gt;&lt;span style=&quot;top: 0em;&quot; class=&quot;mopen delimcenter&quot;&gt;&lt;span class=&quot;delimsizing size3&quot;&gt;(fill-ad total sum&lt;/span&gt;&lt;/span&gt;&lt;span class=&quot;mord&quot;&gt;&lt;span class=&quot;mfrac&quot;&gt;&lt;span class=&quot;vlist-t vlist-t2&quot;&gt;&lt;span class=&quot;vlist-r&quot;&gt;&lt;span class=&quot;vlist-s&quot;&gt;​/&amp;nbsp;&lt;/span&gt;&lt;/span&gt;&lt;/span&gt;&lt;/span&gt;&lt;/span&gt;&lt;/span&gt;&lt;/span&gt;&lt;span style=&quot;background-color: initial;&quot;&gt;Total&amp;nbsp;Ad&amp;nbsp;Requests&lt;/span&gt;&lt;span style=&quot;background-color: initial;&quot; class=&quot;base&quot;&gt;&lt;span class=&quot;minner&quot;&gt;&lt;span style=&quot;top: 0em;&quot; class=&quot;mclose delimcenter&quot;&gt;&lt;span class=&quot;delimsizing size3&quot;&gt;)&lt;/span&gt;&lt;/span&gt;&lt;/span&gt;&lt;span style=&quot;margin-right: 0.2222em;&quot; class=&quot;mspace&quot;&gt;&lt;/span&gt;&lt;span class=&quot;mbin&quot;&gt;×&lt;/span&gt;&lt;span style=&quot;margin-right: 0.2222em;&quot; class=&quot;mspace&quot;&gt;&lt;/span&gt;&lt;/span&gt;&lt;span style=&quot;background-color: initial;&quot; class=&quot;base&quot;&gt;&lt;span style=&quot;height: 0.6444em;&quot; class=&quot;strut&quot;&gt;&lt;/span&gt;&lt;span class=&quot;mord&quot;&gt;100. e.g. 2&lt;br&gt;&lt;b&gt;&lt;u&gt;totla eCpm&lt;/u&gt;&lt;/b&gt; = sum (eCpm of all Ads) e.g. $391&lt;/span&gt;&lt;/span&gt;&lt;/div&gt;" style="text;html=1;align=left;verticalAlign=top;whiteSpace=wrap;rounded=1;strokeColor=default;dashed=1;strokeWidth=2;shadow=1;" parent="1" vertex="1">
          <mxGeometry x="10" y="844" width="400" height="110" as="geometry" />
        </mxCell>
        <mxCell id="5tDuQ4ynyZppxNNhZH8u-1" value="ad - tiktok-1 ecpm=$100" style="rounded=0;whiteSpace=wrap;html=1;fillColor=#d5e8d4;strokeColor=none;" parent="1" vertex="1">
          <mxGeometry x="30" y="420" width="180" height="40" as="geometry" />
        </mxCell>
        <mxCell id="5tDuQ4ynyZppxNNhZH8u-2" value="ad - tiktok-2 ecpm=$98" style="rounded=0;whiteSpace=wrap;html=1;fillColor=#d5e8d4;strokeColor=none;" parent="1" vertex="1">
          <mxGeometry x="30" y="470" width="180" height="40" as="geometry" />
        </mxCell>
        <mxCell id="5tDuQ4ynyZppxNNhZH8u-3" value="ad - cloudbet ecpm=$97" style="rounded=0;whiteSpace=wrap;html=1;fillColor=#e1d5e7;strokeColor=none;" parent="1" vertex="1">
          <mxGeometry x="30" y="520" width="180" height="40" as="geometry" />
        </mxCell>
        <mxCell id="5tDuQ4ynyZppxNNhZH8u-4" value="ad - meta&amp;nbsp;&amp;nbsp;ecpm=$96" style="rounded=0;whiteSpace=wrap;html=1;fillColor=#dae8fc;strokeColor=none;" parent="1" vertex="1">
          <mxGeometry x="30" y="570" width="180" height="40" as="geometry" />
        </mxCell>
        <mxCell id="5tDuQ4ynyZppxNNhZH8u-5" value="&lt;br&gt;&lt;b&gt;&lt;u&gt;&lt;br&gt;&lt;/u&gt;&lt;/b&gt;&lt;div&gt;&lt;b&gt;&lt;u&gt;&lt;br&gt;&lt;/u&gt;&lt;/b&gt;&lt;/div&gt;&lt;div&gt;&lt;b&gt;&lt;u&gt;eCpm&lt;/u&gt;&lt;/b&gt; -&amp;nbsp;&lt;strong&gt;Effective Cost Per Mille (eCPM)&lt;br&gt;&lt;br&gt;&lt;/strong&gt;&lt;b&gt;&lt;u&gt;eCpm formula&lt;/u&gt;&lt;/b&gt; = CTR * CVR * Bid * 1000&lt;br&gt;&lt;br&gt;&lt;div&gt;&lt;b&gt;&lt;u&gt;CTR&lt;/u&gt;&lt;/b&gt; = ratio of users&#39; click on advertisments.&amp;nbsp;e.g. 100 ad visit, 40 ad click. ctr = 40%&lt;br&gt;&lt;br&gt;&lt;b&gt;&lt;u&gt;CVR&lt;/u&gt;&lt;/b&gt; = the ratio of conversions (desire actions like app-activation / in-app-purchase). e.g. 40 ad click, 10 app-activation,cvr = 25%&lt;br&gt;&lt;br&gt;Bid = price of per click / desire action. e.g. $10 bid for a app-activation. eCpm = 0.04 * 0.25 * 10 * 1000&amp;nbsp; = &lt;b&gt;&lt;u&gt;$100&lt;/u&gt;&lt;/b&gt;&lt;/div&gt;&lt;/div&gt;" style="text;html=1;align=left;verticalAlign=top;whiteSpace=wrap;rounded=1;strokeColor=default;dashed=1;strokeWidth=2;shadow=1;" parent="1" vertex="1">
          <mxGeometry x="25" y="60" width="570" height="260" as="geometry" />
        </mxCell>
        <mxCell id="5tDuQ4ynyZppxNNhZH8u-13" value="Demand-Side Platform(DSP) - (microservice)" style="rounded=1;whiteSpace=wrap;html=1;fillColor=#d5e8d4;strokeColor=none;" parent="1" vertex="1">
          <mxGeometry x="10" y="989" width="420" height="150" as="geometry" />
        </mxCell>
        <mxCell id="5tDuQ4ynyZppxNNhZH8u-15" value="ad-fill-rate" style="rounded=0;whiteSpace=wrap;html=1;fillColor=#cdeb8b;strokeColor=default;" parent="1" vertex="1">
          <mxGeometry x="390" y="1009" width="240" height="30" as="geometry" />
        </mxCell>
        <mxCell id="5tDuQ4ynyZppxNNhZH8u-24" style="edgeStyle=orthogonalEdgeStyle;rounded=0;orthogonalLoop=1;jettySize=auto;html=1;entryX=0;entryY=0.5;entryDx=0;entryDy=0;strokeWidth=3;" parent="1" source="5tDuQ4ynyZppxNNhZH8u-17" target="5tDuQ4ynyZppxNNhZH8u-23" edge="1">
          <mxGeometry relative="1" as="geometry">
            <Array as="points">
              <mxPoint x="660" y="1064" />
              <mxPoint x="660" y="1064" />
            </Array>
          </mxGeometry>
        </mxCell>
        <mxCell id="5tDuQ4ynyZppxNNhZH8u-17" value="fill density" style="rounded=0;whiteSpace=wrap;html=1;fillColor=#cdeb8b;strokeColor=default;" parent="1" vertex="1">
          <mxGeometry x="390" y="1049" width="240" height="30" as="geometry" />
        </mxCell>
        <mxCell id="5tDuQ4ynyZppxNNhZH8u-18" value="total-ecpm" style="rounded=0;whiteSpace=wrap;html=1;fillColor=#cdeb8b;strokeColor=default;" parent="1" vertex="1">
          <mxGeometry x="390" y="1089" width="240" height="30" as="geometry" />
        </mxCell>
        <mxCell id="5tDuQ4ynyZppxNNhZH8u-20" value="Response Ads - List&amp;nbsp;" style="text;html=1;align=center;verticalAlign=middle;whiteSpace=wrap;rounded=0;fontStyle=5" parent="1" vertex="1">
          <mxGeometry x="25" y="350" width="190" height="30" as="geometry" />
        </mxCell>
        <mxCell id="5tDuQ4ynyZppxNNhZH8u-106" style="edgeStyle=orthogonalEdgeStyle;rounded=0;orthogonalLoop=1;jettySize=auto;html=1;entryX=1;entryY=0.5;entryDx=0;entryDy=0;" parent="1" source="5tDuQ4ynyZppxNNhZH8u-23" target="5tDuQ4ynyZppxNNhZH8u-105" edge="1">
          <mxGeometry relative="1" as="geometry" />
        </mxCell>
        <mxCell id="5tDuQ4ynyZppxNNhZH8u-108" value="fetch" style="edgeLabel;html=1;align=center;verticalAlign=middle;resizable=0;points=[];" parent="5tDuQ4ynyZppxNNhZH8u-106" vertex="1" connectable="0">
          <mxGeometry x="-0.1341" y="1" relative="1" as="geometry">
            <mxPoint as="offset" />
          </mxGeometry>
        </mxCell>
        <mxCell id="5tDuQ4ynyZppxNNhZH8u-23" value="" style="shape=image;verticalLabelPosition=bottom;labelBackgroundColor=default;verticalAlign=top;aspect=fixed;imageAspect=0;image=data:image/png,iVBORw0KGgoAAAANSUhEUgAAApEAAAEOCAYAAADR80zAAAAgAElEQVR4nO3de5QcV30v+u/e9ejuGc14NA9pLAVrFCQskcgWcIKFjZNAMNiYgC0JMGDAhoDPAcscOYBNQhLuzVrJWQabdSCcu7BjAQZjc42EbRnuuhBOZAsJsGIZmYSXiSxLyHrM+9ndVbVrnz/2rurukeRRaR49j+9nLa3prlfvntLMfPu3d+0SK1eu0iAiIiIiykDWuwFERERENPcwRBIRERFRZgyRRERERJQZQyQRERERZcYQSURERESZMUQSERERUWYMkURERESUGUMkEREREWXGEElEREREmTFEEhEREVFmDJFERERElBlDJBERERFlxhBJRERERJkxRBIRERFRZgyRRERERJQZQyQRERERZeaezUb5fB5bbrkZGzZswMjIMP7mbz6Dw88/j1WrV2Hr1q3o6loBpRT27tmLO+74LOI4nu52ExEREVEdTRgipZT45G2fwEtf+vv4whe+iN1P7E5D4ubNm5HP+9hy8xZcsGIFbvrwh7Bp00Y89NC3p73hRERERFQ/E3Znv+pVr8Kql74U27Z9FY/vejwNkM3NTejq6sK+J5/CwYPPYde/7kJ3Tw/WrFkz7Y0mIiIiovqaMESuXbsWQjr4i7/4C3zv//suvv6N+/DqV/8RWha3olDIQako3ba3txfS4TBLIiIiovluwsSXy/loalqExx57DO94+zvx3HPP4YYbb8CixsaZaB8RERERzUJndWHNkSO/w7ce/BYA4Mmf7sO733MdLlixItMLOY6TvXXzhOuab3MURRNsSdOF56C++P2vP56D+uM5qD+eg6k1YYhUcYyGhjw6O5fi+PETAIA4BoaHBlEsluE4lUO0tbWh+2T3aY/jeS7OP//8KWr23NLZ2Yne3l6EYVjvpixYS5cuRV9fP8IwqHdTFqSlS5eiv38AQVCud1MWrCVLlmBgYABBwJ+Beuno6MDQ0BDKZf4c1EtHRweGh4dRKpXq3ZR5YcIQ+dS/PYXXv/712Pz2zXjwgW/h1Ze8GkNDg/j5z3+OQ4cO4ZINl2DX47vQ2dmJjvZ27H5i92mPUyqV8dxzh6b8DcwFSsU4fvw4f3nXURQpnDx5kr+86yQMI3R3d/P7X0dhGKKnp5d/POsoCAL09fWjWCzWuykLVhAE6O8fwNjYWL2bMi9MOCbywIED+NaDD+Lyyy/HfV//GrpWXICvfuWrGBoaxjfvvx/Dw0O4887P4dZbt+LAgWewffuOmWg3EREREdXRWY2J3LnzMezc+dgpyw8fPoJbtnxsyhtFRERERLMb5+MhIiIioswYIomIiIgos7PqzqZz50jgJe0Ko0NA2RHQGog1AGhoLRBrQGsNrQGtBbTWdj0RERHR7MUQeQ5cB2htkmhttv+aBFqbnaplwjxukmhqkDjeH6Ep3wwIQAoNIQSEAKQAAAEhNKRAzXINDYwLmbEWMOETVctFVShNliMNolprxHEloGrABtbKtoCu2S9Zr6Gh7b6x2bBmfdoGVAXgONm3ejttX0ekj812GhrCbpe0wbzHOK59jxq6crx43PvTtW3Udn31+/u98yPsfcbF4eMKx3oVBkeZ1ImIiCaDIdLyXYHFzdKGP2HDYXVIlGhtctDaLNCQFxgY0egfijEwGmNwRGNgRGFwNMaRboXBkdisH4kxNBpj2bLl6O4+mWmeSJEGTNiAacInYMYgmMCp7XqR7pP8k2L8MSrhFaisr2xfe4zq9acLukIAYvxrwgRAYberPUb1MSttF6g6nhC2ncn3QJz63sX4915pX9oOCbjJcrvP4kaNK1/toaPZR2erg1gDx/sUXuhRONoT44XeCC/0xHihN8YLPREidU7/jYiIiBaMeR0ic56oqQomIbGtubZyuLhJIu8DA8Mx+kc0BmwIHLAh8PAJs3xwJEb/sMZwMZ72ticVNK2ByqtVV8/O9JhO5/zzF6Onp5RONt5UkOhslVja6mDpYok/XOnhDa+SWLrYQWerg+6BGC/0mqrl0W6FF3oVXuiJcaxPoXtg+s8/ERHRbDfnQmQhByxuSqqESRAUaKuqHC5ukljcJOC7Av3DcU0oHBjR6BvWOHgsqFk2MgPBkGaP4WKM4aMxnj16+ltfLVlsAuVS+3X1S1wTMBcLNOQljvUqvNAbVwJmb4wXekxlc6zMUE9ERPPfrAiRhZxIA2BbswmAbc0Sbc2ODYVm/eImCccB+ods+BuNMTAcY3BUo3sgxrO/U+mygZEYoyX+Madzc7I/xsn+GD8/zbq8L2zF0nxdeb6DS17u4/xWic5WB2Ml0y1+rDfG0Z7IdJf3xDjWZ7rMiYiI5oMZC5GvfJmHV73Mr6kcLrbBUAC2YqgrwXDMdB3+6nCIgVGN/uEYgyMxqzxUd6VA4/kTEZ4/AQCnjnNd3CTTCubSVgd/tMY1z1slOs5zbBXTjMU81hPZKqbpPh8YYcgkIqK5YcZC5PCYRsEHjvUp/OJ5czFK/4ipGJYCBkOaP/qHY/QPx/jV4VO7yh0pbMCU6GxzsKTVwbrf99LAKYXGsV5TyTzaE6XjME1XeYwg4s8KERHNDjMWIg8dj/DA/2aVhRY2FWs7hlIBvz21irmoINJAuXSxxMtXuHjdK3wsbXXQ2SrRP5QEzMrFPi/0KBzrUzjZz58vIiKaObNiTCQRGSNFjZFihP984fQX/HSc52Bpq72yfLGDy9e5WGofLyqYC36SyuXRboVjfSZkHu1VGC2yiklERFOHIZJoDukeVOgeVPj3505d57sCnW1O2l2+otPBq1/um67zVgflUONYT4yjyZyYPZWryo/1Kt4piYiIMmGIJJongkjj8IkIh0+cfn3LIgdLF9sry9skXvkyD1cudtC52HSVmwqmCZW/61FmbKa98Kd/mF3lRERUiyGSaIEYGFEYGAF+feTUrnIhRFqxXNoqsLTFwR90uehsLaCzVcJ1hB2DWTsWM5kjs8yL44iIFhyGSCKC1hrH+xSO953+fo+N+eSCHzP+8sKXuPjji3I2eEoMjmkcs2MvkyvJk7B5op/3kCQimo8YIoloQqMljYPHIhw8dvr1bc2mizwZj/maP/DRaSdfb24U6B4MMDLWiON9OYyVNMbKGqMljdGieTxW0hgtxVXrkD4eK2koDtgkIpp1GCKJaNJ6hxR6hxT+4wwX/PzhhUvQkhvDWClCQ04inwMacgKtzRLLcwIFHyjkJBryQMGXyOcEGnJmWWNeIIxM6Cza8FkdMEdKlRBaLI8Pphpj5RhjJaT7ca5NIqKpwRBJRNMqiDSO9Un8e69CEATndIycJ9CQEzZcChSSf75AQx7I+xJNDRIdLQKFHFDwhQmlOVRtZ/YRAmkYLVaFzdGkClqsPB4rxTWhdbSkUbTBdLQIFDkWlIgWMIZIIpr1yqFGOdTAyOSP5TpIA2belyZc+kBDXiLvw4ZUiZZFAnnfMeHVhtDka6Hq+VgprumCN9XQGKPjA2rpTF33yTogZrc9Ec0hDJFEtKBEChgeizE8BgCTm7pIADZMJl3xlSppdeW0/TyJwhJhQ6q0YdR03Ve+CgRREihru+BrK6Rxpau+at1YOamQmsfh6eerJyKaMgyRRETnSAO20qjQOzT54+W8qornKWHUhM2mBoklttvebCdNF76toDbkgQZfAAImWBZNlTPSIWLVgO6BHEqBRimIUQqAcqBRDIBSECMINUoB7HrzuBxqlO3zclRZH4SsmhItdAyRRESzRNptPwU8B8jnZBpGf+/8NjTnS+gbDJDzBHK+QM4zwfW8RoElLS58D/Bds8xPt6lsl/cFfFcg5wOuI1AObbgMgFKoUQ5j8zgJnSFQKmuUQl0TTE1gPTWsmmMl+1aWE9HsxBBJRDQPhQoI0257oASB/v4I5fK5Xdw0nhCwAbMSMpPQ6bsYF0LNNk0NEu3NgO85yPlV21X/84G83dd3BXzPVEtLoU4Dak3grFpeCmIUg2T7SsW0ElZPU12tqr4SUTYMkURElJnWlUridBLCTBNVHTKTx759btZXgmxjQaC1OamaJttWqqzJsryHmvVBaCuqQSVY1gbOynsuVlVNk2EBZbt/OlSgulIbaOQ9wJHT+u0imlEMkURENGtpPbXd/C8mDavjuvH9NLiiJpgWcgIti6StplYNA/BqK6x5PxkOEKFnqAEd5zWiHJrgGUQ6fX/lquAZhDjNcAFTWU32TQJv2W4bhJXKbDldp6Emd/0Y0RkxRBIREcHMaRpEGsPF6Tl+59JODAyOQEXlNJD6XlWl1BPwHfu1KrT6nkDOFWgqCHjpcAEgZ9dVb3u6IKt1ElSRhlUTXmOUA1EVRquGCoRIlyXBtRScGnhPCa4hZwZYSBgiiYiIZlAYJUFrZsZhOrISKv2kYjo+wFZdUOXbQNrSJJFzK0HW9wR8V6f7eW5l/+qvjhSnhM0zVUpLAVCOqkJs9bpQI4hwyrpSWsGtrKP6YIgkIiKax1RspnkaK89M2JKiUlnNuVWPT1d9teHVcwUWVY9lrdqvsm9V0K06Ts6rBNXxwdUETphlQQzHU5DI4Wi3QDkEgtAE0qTamobTtAJbGVpQ/TjgMAEADJFEREQ0hWI9s1e8CwF4zvhwWt2ljzR4drRJLMqZSnAyY0AyC0ASTD0X6cwBla+12/h2mEAaPk8JnhrlCAiSEFsdcm14rXytDAM4NbSOD7Kmkj1bMEQSERHRnKV1ZTzryATjWTuXCgwOhSgWJz/w1ZGiEjTdZLyqrgRNG0A9G2jT7n8XKDRK+HZZur9be7x0/bhxsK4rTAU1NEMBaoJrVaCtDqHjA+vpgm9tpdV+ra7Shhrj78zKEElERESUkYo1imWNYnlmX1cANrDWVll9t7I8rZra8GnCqrkjVssimYZXr6rSWht2UTNsIAnEkaoNq2cVIv/xf/wD1q9fnz4/efIE/uZvPgPf97B161Z0da2AUgp79+zFHXd8FnHMgQJEREREU03DjuUMJ668TjWvpmp6liFy0aIm7Ni+A/fc8881y2//1O3I531suXkLLlixAjd9+EPYtGkjHnro29PSeCIiIiKqjzBKxmSafu0J585fvnw58vk8hoaHa5Y3Nzehq6sL+558CgcPPodd/7oL3T09WLNmzbQ0nIiIiIhmjwkrkZ7nwXVdXHfdO/H+978Pw8PD+MbXv4EDz/wchUIOSlVmFe3t7YXkPZ2IiIiI5r0JQ2SpVMTevXvxq1/+Cvv27cPtt9+Ga659G1544YWZaB8RERERzUIThsjjx0/gnrvvSZ9/73vfw5ZbbsGKFV2ZXiify6OlpTF7C+eB5uYmhGGIMAzr3ZQFq7m5CVEU8RzUSXNzM5RSCAJ+/+vlvObzzO3vyoV6N2XBaj6vGQBQys/w5byUaj6vGRBALpevd1PmhQlD5Cte+QqsXbMGjz32GIaGKuMiR0dHUSyW4TiVQ7S1taH7ZPeLHG32TJA5k7TW0DrGQn3/s4I254HnoD7MzwDA73/9aPAc1JvWGhr8PVRPWmv77ec5mAoThshFjYvwlj+/GlEU4dFHd+LNb34zgqCEAwd+hle88hW4ZMMl2PX4LnR2dqKjvR27n9h92uOUyiUMDART/gbmgoaGRgwODrIKVkeFQoM9Bwvz/2C9FQoFDA4OIghYgamXfD6PwcFBlMulejdlwcrnzDkolXgO6iWfy2NwaHBKJhunswiRu3fvxuqXrca73v0u3HDjDRgY6MdXvvI1HD9+At+8/358/BMfx513fi6dJ3L79h0z0W4iIiIiqqOzmidy273bsO3ebacsP3z4CG7Z8rEpbxQRERERzW6cj4eIiIiIMmOIJCIiIqLMGCKJiIiIKDOGSCIiIiLKjCGSiIiIiDJjiCQiIiKizBgiiYiIiCgzhkgiIiIiyowhkoiIiIgyY4gkIiIioswYIomIiIgoM4ZIIiIiIsqMIZKIiIiIMmOIJCIiIqLMGCKJiIiIKDOGSCIiIiLKjCGSiIiIiDJjiCQiIiKizBgiiYiIiCgzhkgiIiIiyowhkoiIiIgyY4gkIiIioswYIomIiIgoM4ZIIiIiIsqMIZKIiIiIMmOIJCIiIqLMGCKJiIiIKDOGSCIiIiLKjCGSiIiIiDJjiCQiIiKizBgiiYiIiCgzhkgiIiIiyixTiLx5y0fx8MM7cM01bwMArFq9Cl/6X1/Cd7/3GB7d+Qhuv/02SMlcSkRERDTfnXXiu/jii3Hppa+BqAqJmzdvRj7vY8vNW3DXXZ/HxRdfhE2bNk5LQ4mIiIho9jirECmlxDve8Xa88MIxjI2OAgCam5vQ1dWFfU8+hYMHn8Ouf92F7p4erFmzZlobTERERET1d1Yh8q1v/XOcv2wZfvgvP0yXtSxuRaGQg1JRuqy3txfSYXc2ERER0Xw3YeLr7FyKq666Eo/v2oUTJ0/ORJuIiIiIaJabMES+87rrEIQBHnnk0ZloDxERERHNAe6LrVy+fDnWr1+Pzs6leODBb6bLb/qvN+GxnY+hWCzDcSqHaGtrQ/fJ7tMeK5/LY8WK86eo2XNLR0cHCoU8oiiaeGOaFu3t7WhoKPAc1El7exsaGhr4/a+jtrZWLFq0CGEY1rspC1ZrayuampsQBEG9m7Jgtba2ovm8ZpTL5Xo3ZV540RB59OhR3HjDjenzV77qlfjEx/8S3/rW/4uHH34Et3/qdlyy4RLsenwXOjs70dHejt1P7D7tsYIwwOHDR6a29XOEUgonT3bzl3cdRVGEnp5e/vKukzCM0NfXi3KZ3/96CYIQAwP9KJX4x7NeyuUAQ4MDKPIc1E0QBBgcHESxWKp3U+aFFw2RE/nm/ffj45/4OO6883NQSmHvnr3Yvn3HabeN4xhaT+bV5q441tA6htZxvZuyYMWxtv8HeQ7qQes4/Tmg+uA5mAW0Rqx5DupJxxqa52DKZAqR+5/aj3e96z3p88OHj+CWLR+b8kYRERER0ezG+XiIiIiIKDOGSCIiIiLKjCGSiIiIiDJjiCQiIiKizBgiiYiIiCgzhkgiIiIiyowhkoiIiIgyY4gkIiIioswYIomIiIgoM4ZIIiIiIsqMIZKIiIiIMmOIJCIiIqLMGCKJiIiIKDOGSCIiIiLKjCGSiIiIiDJjiCQiIiKizBgiiYiIiCgzhkgiIiIiyowhkoiIiIgyY4gkIiIioswYIomIiIgoM4ZIIiIiIsqMIZKIiIiIMmOIJCIiIqLMGCKJiIiIKDOGSCIiIiLKjCGSiIiIiDJjiCQiIiKizBgiiYiIiCgzhkgiIiIiyowhkoiIiIgyY4gkIiIioszciTZoaWnBbbd/EuvWrYMQAocOPY/Pf/7z+O2zv8Wq1auwdetWdHWtgFIKe/fsxR13fBZxHM9E24mIiIioTiasRF5//fVYvmwZ/vqvPo0PfuCDiOMY73nPuwEAmzdvRj7vY8vNW3DXXZ/HxRdfhE2bNk57o4mIiIioviasRP76N7/Gr3/zaxw4cAAA0NPTjfb2DjQ3N6Grqwv7nnwKBw8+h4MHn8PGjddizZo1095oIiIiIqqvCUPkD77/g/TxmrVr0NW1Ek/921NoWdyKQiEHpaJ0fW9vL6TDYZZERERE892EIRIALlixAn//95/BkiVL8Zvf/Abbd+yA53nT3TYiIiIimqXOKkQefv55vP99N+KCC16CT3zy4/joR/8b7r77nzO9UD6XR2Ojf06NnOsaGgpobFyEMAzr3ZQFq6GhgEWNjQjChfl/sN4aGhpQKpX44bOOGhoaEAQBXPesfu3TNCg0FBBGIRyH56BeCg0FRCqClE69mzIvTPg/eeOmjRgeHsYPvv8DHD58BM8c+Dlee/llaGxsRLFYrvlhaGtrQ/fJ7jMeq6GhMDWtnmPy+TwKhTw8j7846iWfzyNfKMDlOaiLXC6HfL7AAFNHyTlwHP7xrBdzDvKQksO+6iWXyyEMQwgh6t2UeWHC3+irVr0Ua9e+HEeOHMFAfz/WXbQOJ05045e/+AUOHTqESzZcgl2P70JnZyc62tux+4ndpz1OqVxCd3cw5W9gLvA8Hz09PaxE1pHrevYcLMz/g/Xmui56e/sQBOV6N2XBchwH/f0DKJdL9W7KguVIBwODAyiVeA7qxZEOBocGUSwW692UeWHCj0P3fe0+nDhxHHfe+Tncu+1eOI6Lu+++GwDwzfvvx/DwEO6883O49datOHDgGWzfvmPaG01ERERE9TVhJfL48RO4/bZPnXbd4cNHcMuWj015o4iIiIhoduPADCIiIiLKjCGSiIiIiDJjiCQiIiKizBgiiYiIiCgzhkgiIiIiyowhkoiIiIgyY4gkIiIioswYIomIiIgoM4ZIIiIiIsqMIZKIiIiIMmOIJCIiIqLMGCKJiIiIKDOGSCIiIiLKjCGSiIiIiDJjiCQiIiKizBgiiYiIiCgzhkgiIiIiyowhkoiIiIgyY4gkIiIioswYIomIiIgoM4ZIIiIiIsqMIZKIiIiIMmOIJCIiIqLMGCKJiIiIKDOGSCIiIiLKjCGSiIiIiDJjiCQiIiKizBgiiYiIiCgzhkgiIiIiysytdwOIaB6RLtx8HjLfACdfgMzl4eQbUDj/fCwtNGH0+FFopaB1DK0UEMfQsYKOzXMdx0Cs7Db2q4oBrRCrZJ15rlWMWClAR3ZZXO93T0S0oDBEEi1gwvXg5BrgFPKQORP8Kv8qy2SuAKdQgJMrwMk3VD2262xglK4HVS5ClUqIy0WocgmqXIQHQAmJwu8PQzgOICSklBCOBIQD4TgQUgLSgZDCfnUg02USkBJCSru/A+FISOmY5Y4DCHHmUGq/xjVBNbZB1eyDdJ/abeI4SteNPz5ihTgJtjXht+p5sk8afpUNv5VjVG9T05YzBemqbeKq4G3aU9tWhmsimi4MkURziPBycPINcAuVKp/M5eEUGmyoS5ZVhb5CATLXALcqDMpcAU4uDwBQZRv4SmWochE6qDyOgzLicgmqXEI0PISg54TdvgRVMutVuYi4VEYcFBGHwWnbvWTJEvT3DyA8w/qp+eYIQNigaYNnElhrHjvSLnPS8CmTEGvDqdkuWWb2EdJJA62oXp8E3yTYOj7gV9oBIaq2tcF3fJuqA7V0IBxR1RYbqKuWVdoiKm1yHNOuZJ1jjgsIEyTjGJ193ZB+HnFQhCrZsB+Yr6pcQlwagyqWoMpj5vwmHwRKxfScm/Ne+aBARAvXhCGypaUFt93+Saxbtw5CCBw5chhf/vI9eHr/01i1ehW2bt2Krq4VUEph7569uOOOz5pPxkRkK3km2JnKXlLJy5sKYHUlL1+Am2+ATCqB1YHPPo+jEHFg/5iXS9A24KXBLv1aRjjQh1KyXVBKg4J5bkKAVlG9v0VTR2tT6YsVNMJ6t2b2ECZ8Llm6BKORQlAOTNXYz8HJ2Q8juRyEn4djH/uL2+DkChCeDyeXH7dNAU4ulx4j+X+XBNK4VEJkQ2dcGrPrxmwIHbPhs1QVUqsq1yWzHODfEKK5YMIQef3112P5smX467/6NE6cOI6//vSncf3178HT+5/G5s2bkc/72HLzFlywYgVu+vCHsGnTRjz00Ldnou1EU0vImq5bN6nypZW9ccGvkHT72mX5BjMeMAmFfh5xWE4rPrUVviJUuVLl00EZQe8QiqWy2a5ctn9ci9BB8rgMaFXv7xLNNVqbcaNRiHBwCGFQntLDSz8PmasEUhNOk2V5CN9Uvb3mFuTaOyHs+nQbP2/Dac5+WMpDBYENmOWaimhcrqqgJo/LpnoaB2NpCE2rplX7IObPDtFUmzBE+r6HXY8/gQMHDgAAnjlwABddfDGam5vQ1dWFfU8+hYMHn8PBg89h48ZrsWbNmmlvNM1vwnEhXA/SNV+F60K6fs1z4XqQngfpVD93IRzP7lv93MXil3ShcXjI/LE6ZYyfeS49v6YqknTxVgKf/RqY9eFQv6m2pGP/SvZ55TGg6/3tJJpWcVBCHJQQDQ9O2TGln6sKp+ar9ArjwmkebuMi5Fo7IHN5E07TAGtDanKMfAFxFNmKfHW4NGN2ayqjxaKtpNZWTasDabKvVqx408I2YYi8667Pp4+llFi7di2OHj2KlsWtKBRyUFXdYb29vZAOZw2aC8S48CVt+BLjwpcJY77Z1rHbJkHO8c22bmXbJMAJz4N0qsKd65vHjgvpVV47OWb6ep4HxDHiKEIchdBRCK0ixGEErUw1JY4qj3XyWCXbK2gVIrZfzXYKcRCgdOwIwrGR2vF+yR+HoIR4iis0RHRu4qBsfh5Hpu6Y5iKyJFhWKqHSz9cGz0IjCi2t6TLp5dLufGn3T9ZBa/vBcvyHT9Olr9MAasLnopyHvOtj6NB/mmEpQRlxECAOytBhGSooIS6bZQyoNBdkurDmpps+jPb2Ntxzz72ZX6h55Sp0XflmCA1zJaKOoWMNgdhemagBrc1VkXaZGRZj12sNpOs0EGt7DLMMsTbLYQaQ6+RYOgaqXtM811WvaZ/bYwmt0321ts+TfWOzDrrqeRwD0OlrImmTrrTHbe2AF0SQAITjp2EpDV6OWwlqNUGrKti5VeHN9U0VLq3MvXgQFLaKl27vuGbcWBSZQBYFNoRFNpSFVY+rg5syQU1FQHWws/uqYKQq8KlTjhNXhb7kOGkbVGUd9DRU75YuRX9/P8JgGi/sIKJZS0choigERoen7JjCcauqnrmqcFodNk111G06D7nzWuAXGpH7vd+H9Hzze9/LQfr2d7qfM8v9HISUaZhOgmYcBvZDb7nyLwzSD8GmWhpABSXo0PaaBAHictkG1so/ZYMrPzzTZJx1iNy48Vpc/sevxQPffBC//OUvcMGKFZleSHo+gt6TEEJCQ9irHgEhJCAFAHvFo+tACA9CCGghIYSwVz6KypWGVVdhmoPb7YSEFsLuI+0+5tjp/kJCSJhl6X61xxRCpG007YM9dnV77DFt+0Wyf9VzISU0JDA2jPZcPq2cVYKbGlc9qwplYQio2uAWRwo6KFxxeFsAABa+SURBVENHA4ijyK6vOqbdT6skxFWeVwfEaQtqREQLiFYR1NgI1NjZlUw72jswNDyEcvksgpt0TBXU92zgTMJmdfCsXe4WFkGe50N4fhpSzbpcZVlVUDXB1UcchDaQVoJldZU0Dahp1bRUE1hPDbXlqmBbOQbHdM8/ZxUiL73sUlxz7TX49kPbsXPnYwCAgf4+FItlOE7lEG1tbeg+2X3aY5SPHobTdHZd3RqVkWTzIeq0tbVhYHAQKprclbDC/gMA52x38gTgeQC8Sb32XNfW1gbXcxGF8+hq5NMQUkDbrzL9gKTNBxuZ/P8xH4SE/UwmpbArkuUaIn2OyocsKcznveSDWnJcmM9UlQ9TqHptABJoaChAifNRHg6gIgWtNGKlESsgjmLEUVy1TJtlSkMrIFa214AmpbW1FblcDmHIbtJ6aW1rRb6QR3BOPSIhEIRAMHrGLWy/XDZCVPV6+ZC+ByTPvVy6zvPNepHzIBY1pD1isEOVhJf0gtllXuWYSYA1PWAhdBiYLnv72PwrQ4eh/WqWxcnyIKjaLtm3dlll+wD6Rf7WdnS0o9BQQKnECuxUmDBEXnrZpfjIRz6CPT/6EXbs+E66fGhoGIcOHcIlGy7Brsd3obOzEx3t7dj9xO4zHquvr39qWj3HeJ6Hvr7+SYdIykAAXs6Fm3Pg5x3IxQo6jCByyoQbKWAK2yIpQts59kRaqZZpMELVtqaSLaWAtgEsDU7ShjAbuoRjjy1s+Epe01bHpdRmjkJZCWtamNcVUkDAvraThDEb3mBDomMjYVUboGGHY5jQpWNtRoFojVjbYSD2udYasf3EFtvhIEJraOhkWkE7LAOItYaAtqNFzNCT2B7fDOMQlSEp9rjpkJFYIAgdxFIhRAAnJ+G4Zt5DxzVzKEpHwHUFhCvhOALSNfMeup6AdCS0BmKloCKNOIyhVAwVaWiloEINrWJEoQmecaigbAiNQmVDqkasYqhQVbaxATUKImiloexxdRRjPs5S5rguBgcHEZQ5pKNepONgeHgI5dLCPAfSs0O3vHHVUa+2eir8ccuaGs1j/wzb1+ybDAUI0qpqpTpahiOAJgjkz7J6fNpS1ll/phUTb5L1tadnk3PeQ6xcuepFt/67z/wtNmzYULMsDENsu3cb9u/fj49/4uN46UtfOuE8kbm8h/bOlrNu2HzS2dmJnt5eRKwAZCI8B7m8CYJuzoGXc20wdOHnHXh5D17eLHfzZrmXc+HlHTi+A1VWiMoKQaCQcx0UxwLEKrbBSUNoExZiG7jiWJtefo3KuFobymI7DhcQaYhKwlpsw5cJTqJqbKw5poB5Ta1gx/ba8IZkbK4NflrYsbZ2qG4cI4ZOQ545iG2PrgQ683qY1UMU2jo6MDQwcM5VMC0EXE/CkRLCE3AcB9ITkFLC8SWkk4RPB9KVNqA6cOxj6ch0uWsnAnc8AeG4cBxht5Nw7bG0NtXQKDKhUqkYqpyE1xhxpBBFGjpUiGwlVUU25Nr1KtSIlTLhNtJQSiEONVQUp+FW2ePrGTh3HR0dGBwcQsAxcHWTqTubzp10xnXn29Dq+2htX4Ko0ICxnpNnf7xTsuDZhcPJRshqtb8ixNQePLPKi08YIqcKQ+TCC5FCSLh5B54Ngl7OhV9w4eYkXN+Hn3fseg+erRg6vps+1zEQBiGicoyoHCIsK/M4CBEFGmE5hAoUwrKCKkcIygpRECEqK6igduxN+5IODPQNmIH1NOMmGyJnmpYCruuYYGrDq/RsIHUlHFfCcc2dbqQrIe1jxz42YVdCykpodT0BOA5c14RgMS60qqpQGUVxGlBN9VUhqq6yVofWUEGp2ARUpaCqQ2sQQ9mKbFtLK4aGhzAycObuUJpeDJH119HegeGRYZRKpXo3ZV7gbQ/pRTm+AzfvImcrgG7OgVdwq7qKvbT65+ZceHkXXk7Cy3uQUiIoKygbAMNAISpHUEGMsBxBhQrFgQDDwSjCclwJgGWFIAh50wqqGxFrqCCCAoCZuLOfhKmcOiasOlWVU+k6cFxbLbUV0yS0erna0OpIUanM2qECZl8HrucgKEYotORsN36MOFQIQ2W+BhpxGJnKaWiGB6ggMkE2sNVTZar7cagRRRFUGCMKTHBVkUIc8oeWaCFhiJznhCvh2+7etOvXd+EXnLT71805pkLomwpgWjnMu1ChQlRSCNIKX4SgbP+4lBWCsQCj/SUbACNENiBGgfnDRERnIQZUoKCgpi20trW3Y3hoCEEQQLoSrutA+tJ2+ws4vqmqup6E4yWB1kE+58I5zyyTrkirp64rIX033c71TJU2jmKE9uc/CmMTNG1QVaFGFJrfEyqMoEIgCszMEypSiAINFShEkUoDqo5ihKH5SkSzC0PkbCdEGvS8fFLpMwHQBL9KBdB0D7twc7Z7OOcC0Kabt6ygghBBqRIAozBGWA4RjIUYPG6CXxIAI7vPbB5nR0TnJo5iBFEMTHWPnhC2q1/C8QWk66YB1Yw7dUxAdQUcz4GflxCOD9evhNbK/o4Jqq6E6zsQUpigGSpbGY3ToJp8jcIorZqqUCOObGC1oVSV7RCB0D63+2jF33NE54IhcpoJIeHkHeQX+RCOZwOfAy/n2SA4riKYd+Hmk4qg+YUbliKoQCEoqdqKXxAhDmKURwKM9o0hLNnxgiXTNRyWI06NQkQzR2sb0JKK6hRehSxM8JSO6bJPLpxyPAdOMgTAc+B4Aq4NqI6XN1VSR9h1yT5mjKrjuXA8M9eVCk01VAUKUWjeR1wVWk23v6mOxio229mAarr+VWVdVTe/no+X+hNZdQ2RQkjAAaQwY3+S6Uy0NNOeJP+S6VKkI+1dX8w0K8nUJtI1U69IKSAcO/2JnRDcccxXKTXg2LFDMplIHHZfQEonnYIlmapFOmbKFccBhJSVaV4cs78U5laQyWsKIez7sBObS0DEQDAcQLvn2wtDki5hM/YvDBTCUoTiUNkExJKqqgiaqiER0YKnK+NUwynu8k+v/q8OpW51ZdQGUA9wfQfS9eB6EiINqC5cT1YNB7DHcR0A2ow/jSKIWCKKFYKiGU+qla2SKtgr+s0UVCpSlflSI3NxlLlgKkYc24uo4uRqf3OxlbbTXimloCMWD2hmzFiIbFvRgjfedMkpAUvr2M4BZyYZ1ogBZee30zG0FmayYWVuIRjHwkx9kk6XEqdTsyRz3ZmpT+xx4xjCznOn7XoVKTPpqTaTHUOb45njx4iVsNOw2KlclJmKxUzhYubN0yqGhm1z8prplC9m6hhhu4I7lrSjr3eg5j7jREQ0OwhtxmKaWR2meAYBCbieC+lKtHe0IXYjjA2PmZAqJUQyvZQnbbFEQEoHbs4ULsxFUmad4yTbC7iuBBxTgTVVWGGnujLbxsmV/bGCDjVUbC6QimNdCbBKIY6S+VTtXKqnBNjYDg1QiGOdzgIQR6cJsPZGArRwzFiIHO0bw56vP3NKwJqv6jqFExERzQ4xEJUjoAyU8yFGRoZnZIofYedKFVLA8Uxgla5IJ/OX6TRU4wKsvepfOKidJcAxNwBwHNhQK9OAa44r7TanC7AmpFcCrJ2WKoK5wCoNsLGZy/eMATa2+zHAzhYzFiLDkpnSBWDAIiIimk5aaUS292uqu/9flDDDu140wDrmSn8xLsA6joSX86tCq71Qy0mqrsldrmrnaXWqtq8JsJG2QwHsMIEwhuc6iBGjNBJW3cXL3vgBple0+i5e0KZ3MVlmei3NXbLMXb3sDSxind5gwqzX6Y0qdLrePre9mEh6Me1dwrTtWU3vPKZ02qMa25tgILY3pZgleGENERERTQ1d7wBru/9tgHWkhEgCrCfR0rIY2okwOjIGKcxFVcIx11FoCHvbWZhb0gqRBmIIAU/aW806gExub2u3gbC3r5WAQOV2tvaetua4dlspNQBpbmWbXIMhtLmtrjDXdkDYW986yb6y6va4yXDAyu1sk7BauetZ9bKq0GqHBcYqTtcJuz69pe340JvcSrcqXCchlyGSiIiI5j5trleIlKnUnS7AymIOI6MjKM/1O9YIc+vD5EJgIcxFwkJKG6bNOqSBVqQhWwidBlrh2LAqRCU82wuXAXtBsRQ2xGoTnm2YlY5kiCQiIiKaU3SlMlhPsq6vTkRERERzEkMkEREREWXGEElEREREmTFEEhEREVFmDJFERERElBlDJBERERFlxhBJRERERJkxRBIRERFRZgyRRERERJQZQyQRERERZcYQSURERESZMUQSERERUWYMkURERESUGUMkEREREWXGEElEREREmTFEEhEREVFmDJFERERElBlDJBERERFlxhBJRERERJkxRBIRERFRZgyRRERERJSZO9EGUkq85tLX4Oqrr8bKlV341oPfwsMPPwIAWLV6FbZu3YqurhVQSmHvnr24447PIo7jaW84EREREdXPhJXIq99yNT70oQ+hWCxCSqdm3ebNm5HP+9hy8xbcddfncfHFF2HTpo3T1lgiIiIimh0mDJE7H92JG95/A7773e8iVlG6vLm5CV1dXdj35FM4ePA57PrXXeju6cGaNWumtcFEREREVH/nPCayZXErCoUcVFWw7O3thXQ4zJKIiIhovmPiIyIiIqLMJrywZqr4Xg6e583Uy80qnpeD53uQkah3UxYsz/XgeR4ET0Fd+K4Hz/Pr3YwFzbPnQGtd76YsWK7rwvN8XnxaR67rwnNdxAs0j0y1cw6RA/19KBbLcJzKIdra2tB9svuM+xTyjef6cnOa5/hoyDUicqOJN6Zp4bs5FHKNiNyw3k1ZkHwvh0KuAa7DX9z1kvPzCP0Qjpyx2gGNk88VEAUKUjgTb0zTIp8rQIUxpODPwVQ45+/i0NAwDh06hEs2XIJdj+9CZ2cnOtrbsfuJ3afdfqBvCE//+D/OuaFERERENHtMakzkN++/H8PDQ7jzzs/h1lu34sCBZ7B9+46pahsRERERzVJi5cpVHCBDRERERJnw6mwiIiIiyowhkoiIiIgyY4gkIiIioswYIomIiIgoM06UlMH69evxlj9/C9atW4fv///fx7333gsAaGlpwW23fxLr1q2DEAJHjhzGl798D57e/3TN/q9+9R/h5ps/ivaODpTLZezc+Ri23bsNUkp88pOfwIbXbIDv++jt7cVXv/I1/PCHP6zH25zVZuoc9HR345/+6Ut48sl99Xibs9p0nYNqGzdtxA03vB87H92Je+755xl7b3PFdJ6DWz52C6666sp029HRUfzDP/wj9j+1f+be4BywZMlSXHPtW7FhwwYMDw/jY7f8dwBTcw6klLjhxhvwpje9CVIK/OM//g9+/09jus7B333mb7Fhw4aabcMwxLZ7t+Hhhx+Zsfc3F7ASeZZe+apX4paP3YJczodSIaSs3Prk+uuvx/Jly/DXf/VpfPADH0QYKlx//Xtq9pdS4rrrrsPJ7m584MYP4IEHHsQVV7wBl19+OTZt2oiLL74IX/rS/8LGazfhueeew7vfcx2WLFk6029zVpvJc3Do+efx3ve+F1LyR6TadJ6DRGfnUlx11VVwHE7IfDrTfQ4WL27BT37yE1x15Ztx1ZVvxuZNb2eAOY3bb/8k1q59OUZHRyBl5f/qVJyDm276MN70pjfiwQcewHuvfx+//2cwXefg//rM/53+/7/qyjfjC//zCzh58iT+/T841/V4/At5lvY/tR8fuPEDuOeeexGGtXc98X0Pux5/AgcOHMDx4yfwzIED8P0cAOALX/yfuOOzd2D16lVY3NqKPT/ai+PHT2DPj/agWCxh9ctWo6GhAf/21H784Ps/QKlUwv6n9kMpjXwhX4+3OmtN5zk4dOh5PPTt7ek5OHL4CJrPa8LvveQl9Xirs9Z0noPEO6+7DkEQoK+vb0bf21wx3eegra0N/f0DM/6+5ppbb/1LbP3vW9HT01uzfLLn4IIVK/Bf/uhV+M53HsZ3vvMwSqVSPd7enDBd56CalBJXXHEFfvvb/8Rvn/3tjL23uYLd2VPgrrs+nz6WUmLt2rU4evQoAOBzn7sLANDe3oZ8zofW5p6pR48exejoKBwpse1r99Ucb83atRgZHsbvjhyZoXcw9032HOzbtw/79pmu687OpVh30TocOfI7HH7++Rl+J3PXZM8BAGzYsAHr16/Hju3bsfntm2b4Hcx9kz0HUko4jos/+ZM/xpve9EYEQXDa4QZ0ZpM9Bxde+DL4fh5vfOMVeO97r8fo6Bi+ft992LnzsZl/M3PUVPwuSlx22WVo72jHd77z8Ay1fm5hJXKK3XTTh9He3oZHHn4UAHD4+eczBZGNG6/FxRetwyOPPoo4jqermfPaZM7BF//pi/jKV7+CpqZmPPjAg9PZzHntXM6BlBKbNm/Cr375Sxx45ucz0cx57VzOwaJFjfjpT36Kbdu2YdPGzfjhD3+IN7zh9Vi/fv1MNHneOZdz0NjQgEWLFuHp/T/DO99xHXY/sRtvf/tmrFq9aiaaPO9M9m/yZa+9DD3dPdizZ890NXFOY4icQhs3XovL//i1eOihb+OXv/xF5v0vvexSXLtxI/7lX/43Ht/1+DS0cP6b7DnYcvMWvOu6d+Pw4cP4yEc/gubmpmlo5fx2rufgHe98B1pbW7B9B2+dOlnneg6GhoZx33334buPfQ+lUgmP7fwuSqUyLlxz4TS2dn6azO+i7u5uPPLooxgZGcHu3bvhuB7+8A/+YJpaOn9N9u/B2rUvx4UXXogf//jHLOqcAUPkFLn0sktxzbXX4NsPbT9tt8PoyAhK5QBCmG/58uXL0djYCGX/Y65avQof/OCN2LtnT3qlJWUzmXNwxRuvwMZNGwEAAwMDeHr/fixuacGq1atPOQ6d2WTOwaWXvgbLli3HF7/4BXz5y/8PlixZio2bNuLvPvO3M/025rTJnINVq1fhfe97Hzo7eVHfZEzmHESRQj6fQ+vixen2WmtEkZqx9s8Hk/2bDAB/9mevR7lcxA9+8C8z1u65hmMip8Cll12Kj3zkI9jzox9hx47v1Ky7YMUKAMCzz/4W/X19eN3r/xQ//vFeXPbay1Ao5PHsb57FqtWr8KlP3Ybnnz+ML3/57nq8hTlvsudg5cqVuOrNV6K3txc//clPsX79egwODeN3R47W4+3MSZM9B9Xj7i5YsQJ///efwY927+EUPxlM9hwAwJ+94XVoPq8J/3zPvXjLn1+NfD6HX//q1zP+XuaqyZ6DZ5/9Dd52zdtwzTVvw6FDh/Anf/oniFWEX/36V/V4O3PSVPwcdHYuxcXrL8bevXswMMALzc6EIXIKXHHFG9DW1oq3vu2teOvb3gqgMqfU6//s9RgbG8Ptt30KX//GN7Bly83Y9pVt6ZxUu3fvxoc+9BdYtmw5li1bju9+r/KJacf2HfwDepYmew727duHZcuX4S//8la4rpvOE3ny5Ik6v7O5Y7LngCZvKs7Btx/ajuvfez2uvvpqjIyM4OGHH8HPfvazer6tOWUqzsE9d9+Nm2/+KL75wP0YHh7GN77+DV4ZnMFUnIM/fd3r4DgOdu/+UT3fyqwnVq5cpevdCCIiIiKaWzgmkoiIiIgyY4gkIiIioswYIomIiIgoM4ZIIiIiIsqMIZKIiIiIMmOIJCIiIqLMGCKJiIiIKDOGSCIiIiLKjCGSiIiIiDJjiCQiIiKizBgiiYiIiCgzhkgiIiIiykxqrevdBiIiIiKaY9yRkcF6t4GIiIiI5hhXOl6920BEREREcwzHRBIRERFRZgyRRERERJQZQyQRERERZcYQSURERESZ/R8ACV8N3R7v2wAAAABJRU5ErkJggg==;" parent="1" vertex="1">
          <mxGeometry x="810" y="959" width="511" height="210" as="geometry" />
        </mxCell>
        <mxCell id="5tDuQ4ynyZppxNNhZH8u-25" value="byte" style="rounded=0;whiteSpace=wrap;html=1;" parent="1" vertex="1">
          <mxGeometry x="160" y="1275" width="76" height="30" as="geometry" />
        </mxCell>
        <mxCell id="5tDuQ4ynyZppxNNhZH8u-29" value="a type of integer number&amp;nbsp; e.g. 65536" style="text;html=1;align=center;verticalAlign=middle;whiteSpace=wrap;rounded=0;" parent="1" vertex="1">
          <mxGeometry x="155" y="1210" width="320" height="30" as="geometry" />
        </mxCell>
        <mxCell id="5tDuQ4ynyZppxNNhZH8u-30" value="primitive - 4bytes" style="text;html=1;align=center;verticalAlign=middle;whiteSpace=wrap;rounded=0;" parent="1" vertex="1">
          <mxGeometry x="10" y="1275" width="110" height="30" as="geometry" />
        </mxCell>
        <mxCell id="5tDuQ4ynyZppxNNhZH8u-35" value="utf-8 character - 5byte" style="text;html=1;align=center;verticalAlign=middle;whiteSpace=wrap;rounded=0;" parent="1" vertex="1">
          <mxGeometry x="10" y="1355" width="110" height="30" as="geometry" />
        </mxCell>
        <mxCell id="5tDuQ4ynyZppxNNhZH8u-37" value="byte" style="rounded=0;whiteSpace=wrap;html=1;" parent="1" vertex="1">
          <mxGeometry x="235" y="1275" width="76" height="30" as="geometry" />
        </mxCell>
        <mxCell id="5tDuQ4ynyZppxNNhZH8u-38" value="byte" style="rounded=0;whiteSpace=wrap;html=1;" parent="1" vertex="1">
          <mxGeometry x="311" y="1275" width="76" height="30" as="geometry" />
        </mxCell>
        <mxCell id="5tDuQ4ynyZppxNNhZH8u-39" value="byte" style="rounded=0;whiteSpace=wrap;html=1;" parent="1" vertex="1">
          <mxGeometry x="387" y="1275" width="76" height="30" as="geometry" />
        </mxCell>
        <mxCell id="5tDuQ4ynyZppxNNhZH8u-40" value="byte" style="rounded=0;whiteSpace=wrap;html=1;" parent="1" vertex="1">
          <mxGeometry x="160" y="1355" width="76" height="30" as="geometry" />
        </mxCell>
        <mxCell id="5tDuQ4ynyZppxNNhZH8u-41" value="byte" style="rounded=0;whiteSpace=wrap;html=1;" parent="1" vertex="1">
          <mxGeometry x="235" y="1355" width="76" height="30" as="geometry" />
        </mxCell>
        <mxCell id="5tDuQ4ynyZppxNNhZH8u-42" value="byte" style="rounded=0;whiteSpace=wrap;html=1;" parent="1" vertex="1">
          <mxGeometry x="311" y="1355" width="76" height="30" as="geometry" />
        </mxCell>
        <mxCell id="5tDuQ4ynyZppxNNhZH8u-43" value="byte" style="rounded=0;whiteSpace=wrap;html=1;" parent="1" vertex="1">
          <mxGeometry x="387" y="1355" width="76" height="30" as="geometry" />
        </mxCell>
        <mxCell id="5tDuQ4ynyZppxNNhZH8u-44" value="byte" style="rounded=0;whiteSpace=wrap;html=1;" parent="1" vertex="1">
          <mxGeometry x="463" y="1355" width="76" height="30" as="geometry" />
        </mxCell>
        <mxCell id="5tDuQ4ynyZppxNNhZH8u-45" value="PB- 3byte&amp;nbsp;" style="text;html=1;align=center;verticalAlign=middle;whiteSpace=wrap;rounded=0;" parent="1" vertex="1">
          <mxGeometry x="10" y="1430" width="110" height="30" as="geometry" />
        </mxCell>
        <mxCell id="5tDuQ4ynyZppxNNhZH8u-46" value="byte" style="rounded=0;whiteSpace=wrap;html=1;" parent="1" vertex="1">
          <mxGeometry x="160" y="1430" width="76" height="30" as="geometry" />
        </mxCell>
        <mxCell id="5tDuQ4ynyZppxNNhZH8u-47" value="byte" style="rounded=0;whiteSpace=wrap;html=1;" parent="1" vertex="1">
          <mxGeometry x="235" y="1430" width="76" height="30" as="geometry" />
        </mxCell>
        <mxCell id="5tDuQ4ynyZppxNNhZH8u-48" value="byte" style="rounded=0;whiteSpace=wrap;html=1;" parent="1" vertex="1">
          <mxGeometry x="311" y="1430" width="76" height="30" as="geometry" />
        </mxCell>
        <mxCell id="5tDuQ4ynyZppxNNhZH8u-50" value="" style="shape=image;verticalLabelPosition=bottom;labelBackgroundColor=default;verticalAlign=top;aspect=fixed;imageAspect=0;image=http://ocs-cn-south2.oppoer.me/prod-console-new/portal-home/1605602686000/%E6%95%B0%E6%8D%AE%E5%BA%93%E6%9E%B6%E6%9E%84%E5%A4%9A%E6%9C%BA%E6%88%BF.png;" parent="1" vertex="1">
          <mxGeometry x="30" y="1740" width="726" height="725.32" as="geometry" />
        </mxCell>
        <mxCell id="5tDuQ4ynyZppxNNhZH8u-64" style="edgeStyle=orthogonalEdgeStyle;rounded=0;orthogonalLoop=1;jettySize=auto;html=1;entryX=0;entryY=0.5;entryDx=0;entryDy=0;strokeWidth=2;" parent="1" source="5tDuQ4ynyZppxNNhZH8u-51" target="5tDuQ4ynyZppxNNhZH8u-52" edge="1">
          <mxGeometry relative="1" as="geometry" />
        </mxCell>
        <mxCell id="5tDuQ4ynyZppxNNhZH8u-51" value="ad-diversity filter - FT = 57" style="rounded=0;whiteSpace=wrap;html=1;fillColor=#ffcccc;strokeColor=#36393d;" parent="1" vertex="1">
          <mxGeometry x="320" y="660" width="250" height="60" as="geometry" />
        </mxCell>
        <mxCell id="5tDuQ4ynyZppxNNhZH8u-78" style="edgeStyle=orthogonalEdgeStyle;rounded=0;orthogonalLoop=1;jettySize=auto;html=1;strokeWidth=2;" parent="1" source="5tDuQ4ynyZppxNNhZH8u-52" target="5tDuQ4ynyZppxNNhZH8u-77" edge="1">
          <mxGeometry relative="1" as="geometry" />
        </mxCell>
        <mxCell id="5tDuQ4ynyZppxNNhZH8u-52" value="minimum-bid($97) filter - FT = 58" style="rounded=0;whiteSpace=wrap;html=1;fillColor=#f8cecc;strokeColor=#b85450;" parent="1" vertex="1">
          <mxGeometry x="804" y="660" width="250" height="60" as="geometry" />
        </mxCell>
        <mxCell id="5tDuQ4ynyZppxNNhZH8u-53" value="" style="rounded=1;whiteSpace=wrap;html=1;fillColor=none;dashed=1;strokeWidth=2;" parent="1" vertex="1">
          <mxGeometry x="320" y="450" width="250" height="180" as="geometry" />
        </mxCell>
        <mxCell id="5tDuQ4ynyZppxNNhZH8u-54" value="ad - tiktok-1 ecpm=$100 FT=57" style="rounded=0;whiteSpace=wrap;html=1;fillColor=#d5e8d4;strokeColor=none;" parent="1" vertex="1">
          <mxGeometry x="350" y="480" width="180" height="40" as="geometry" />
        </mxCell>
        <mxCell id="5tDuQ4ynyZppxNNhZH8u-56" value="ad - cloudbet ecpm=$97 FT=57" style="rounded=0;whiteSpace=wrap;html=1;fillColor=#e1d5e7;strokeColor=none;" parent="1" vertex="1">
          <mxGeometry x="350" y="530" width="180" height="40" as="geometry" />
        </mxCell>
        <mxCell id="5tDuQ4ynyZppxNNhZH8u-57" value="ad - meta&amp;nbsp;&amp;nbsp;ecpm=$96 FT = 57" style="rounded=0;whiteSpace=wrap;html=1;fillColor=#dae8fc;strokeColor=none;" parent="1" vertex="1">
          <mxGeometry x="350" y="580" width="180" height="40" as="geometry" />
        </mxCell>
        <mxCell id="5tDuQ4ynyZppxNNhZH8u-58" value="after FT=57" style="text;html=1;align=center;verticalAlign=middle;whiteSpace=wrap;rounded=0;fontStyle=5" parent="1" vertex="1">
          <mxGeometry x="345" y="410" width="190" height="30" as="geometry" />
        </mxCell>
        <mxCell id="5tDuQ4ynyZppxNNhZH8u-59" value="" style="rounded=1;whiteSpace=wrap;html=1;fillColor=none;dashed=1;strokeWidth=2;" parent="1" vertex="1">
          <mxGeometry x="815" y="490" width="250" height="140" as="geometry" />
        </mxCell>
        <mxCell id="5tDuQ4ynyZppxNNhZH8u-60" value="ad - tiktok-1 ecpm=$100 FT=58" style="rounded=0;whiteSpace=wrap;html=1;fillColor=#d5e8d4;strokeColor=none;" parent="1" vertex="1">
          <mxGeometry x="845" y="520" width="180" height="40" as="geometry" />
        </mxCell>
        <mxCell id="5tDuQ4ynyZppxNNhZH8u-61" value="ad - cloudbet ecpm=$97 FT=58" style="rounded=0;whiteSpace=wrap;html=1;fillColor=#e1d5e7;strokeColor=none;" parent="1" vertex="1">
          <mxGeometry x="845" y="570" width="180" height="40" as="geometry" />
        </mxCell>
        <mxCell id="5tDuQ4ynyZppxNNhZH8u-63" value="after FT=57" style="text;html=1;align=center;verticalAlign=middle;whiteSpace=wrap;rounded=0;fontStyle=5" parent="1" vertex="1">
          <mxGeometry x="840" y="450" width="190" height="30" as="geometry" />
        </mxCell>
        <mxCell id="5tDuQ4ynyZppxNNhZH8u-65" value="" style="rounded=1;whiteSpace=wrap;html=1;fillColor=none;dashed=1;strokeWidth=2;" parent="1" vertex="1">
          <mxGeometry x="1715" y="520" width="250" height="240" as="geometry" />
        </mxCell>
        <mxCell id="5tDuQ4ynyZppxNNhZH8u-66" value="ad - tiktok-1 ecpm=$100 FT=0" style="rounded=0;whiteSpace=wrap;html=1;fillColor=#d5e8d4;strokeColor=none;" parent="1" vertex="1">
          <mxGeometry x="1745" y="550" width="180" height="40" as="geometry" />
        </mxCell>
        <mxCell id="5tDuQ4ynyZppxNNhZH8u-67" value="ad - tiktok-1 ecpm=$98 FT=57" style="rounded=0;whiteSpace=wrap;html=1;fillColor=#d5e8d4;strokeColor=none;" parent="1" vertex="1">
          <mxGeometry x="1745" y="600" width="180" height="40" as="geometry" />
        </mxCell>
        <mxCell id="5tDuQ4ynyZppxNNhZH8u-68" value="ad - cloudbet ecpm=$97 FT=59" style="rounded=0;whiteSpace=wrap;html=1;fillColor=#e1d5e7;strokeColor=none;" parent="1" vertex="1">
          <mxGeometry x="1745" y="650" width="180" height="40" as="geometry" />
        </mxCell>
        <mxCell id="5tDuQ4ynyZppxNNhZH8u-69" value="ad - meta&amp;nbsp;&amp;nbsp;ecpm=$96 FT=58" style="rounded=0;whiteSpace=wrap;html=1;fillColor=#dae8fc;strokeColor=none;" parent="1" vertex="1">
          <mxGeometry x="1745" y="700" width="180" height="40" as="geometry" />
        </mxCell>
        <mxCell id="5tDuQ4ynyZppxNNhZH8u-70" value="Response Ads - List&amp;nbsp;" style="text;html=1;align=center;verticalAlign=middle;whiteSpace=wrap;rounded=0;fontStyle=5" parent="1" vertex="1">
          <mxGeometry x="1740" y="480" width="190" height="30" as="geometry" />
        </mxCell>
        <mxCell id="5tDuQ4ynyZppxNNhZH8u-77" value="ECPM-Biding - FT = 59" style="rounded=0;whiteSpace=wrap;html=1;fillColor=#f8cecc;strokeColor=#b85450;" parent="1" vertex="1">
          <mxGeometry x="1235" y="660" width="250" height="60" as="geometry" />
        </mxCell>
        <mxCell id="5tDuQ4ynyZppxNNhZH8u-79" value="" style="rounded=1;whiteSpace=wrap;html=1;fillColor=none;dashed=1;strokeWidth=2;" parent="1" vertex="1">
          <mxGeometry x="1245" y="505" width="250" height="140" as="geometry" />
        </mxCell>
        <mxCell id="5tDuQ4ynyZppxNNhZH8u-80" value="ad - tiktok-1 ecpm=$100 FT=0" style="rounded=0;whiteSpace=wrap;html=1;fillColor=#d5e8d4;strokeColor=none;" parent="1" vertex="1">
          <mxGeometry x="1275" y="535" width="180" height="40" as="geometry" />
        </mxCell>
        <mxCell id="5tDuQ4ynyZppxNNhZH8u-81" value="ad - cloudbet ecpm=$97 FT=58" style="rounded=0;whiteSpace=wrap;html=1;fillColor=#e1d5e7;strokeColor=none;" parent="1" vertex="1">
          <mxGeometry x="1275" y="585" width="180" height="40" as="geometry" />
        </mxCell>
        <mxCell id="5tDuQ4ynyZppxNNhZH8u-82" value="after FT=57" style="text;html=1;align=center;verticalAlign=middle;whiteSpace=wrap;rounded=0;fontStyle=5" parent="1" vertex="1">
          <mxGeometry x="1270" y="465" width="190" height="30" as="geometry" />
        </mxCell>
        <mxCell id="5tDuQ4ynyZppxNNhZH8u-83" style="edgeStyle=orthogonalEdgeStyle;rounded=0;orthogonalLoop=1;jettySize=auto;html=1;entryX=-0.009;entryY=0.71;entryDx=0;entryDy=0;entryPerimeter=0;strokeWidth=3;" parent="1" source="5tDuQ4ynyZppxNNhZH8u-77" target="5tDuQ4ynyZppxNNhZH8u-65" edge="1">
          <mxGeometry relative="1" as="geometry" />
        </mxCell>
        <mxCell id="5tDuQ4ynyZppxNNhZH8u-84" value="Result with FT tag" style="edgeLabel;html=1;align=center;verticalAlign=middle;resizable=0;points=[];" parent="5tDuQ4ynyZppxNNhZH8u-83" vertex="1" connectable="0">
          <mxGeometry x="0.3111" y="-3" relative="1" as="geometry">
            <mxPoint x="-28" y="-13" as="offset" />
          </mxGeometry>
        </mxCell>
        <mxCell id="5tDuQ4ynyZppxNNhZH8u-85" value="gateway （http service）" style="rounded=0;whiteSpace=wrap;html=1;" parent="1" vertex="1">
          <mxGeometry x="290" y="3170" width="320" height="60" as="geometry" />
        </mxCell>
        <mxCell id="5tDuQ4ynyZppxNNhZH8u-89" style="edgeStyle=orthogonalEdgeStyle;rounded=0;orthogonalLoop=1;jettySize=auto;html=1;" parent="1" source="5tDuQ4ynyZppxNNhZH8u-86" target="5tDuQ4ynyZppxNNhZH8u-85" edge="1">
          <mxGeometry relative="1" as="geometry">
            <Array as="points">
              <mxPoint x="240" y="3340" />
              <mxPoint x="240" y="3200" />
            </Array>
          </mxGeometry>
        </mxCell>
        <mxCell id="5tDuQ4ynyZppxNNhZH8u-97" style="edgeStyle=orthogonalEdgeStyle;rounded=0;orthogonalLoop=1;jettySize=auto;html=1;entryX=0;entryY=0.75;entryDx=0;entryDy=0;" parent="1" source="5tDuQ4ynyZppxNNhZH8u-86" target="5tDuQ4ynyZppxNNhZH8u-88" edge="1">
          <mxGeometry relative="1" as="geometry">
            <Array as="points">
              <mxPoint x="-25" y="3510" />
              <mxPoint x="185" y="3510" />
              <mxPoint x="185" y="3525" />
            </Array>
          </mxGeometry>
        </mxCell>
        <mxCell id="5tDuQ4ynyZppxNNhZH8u-98" value="girl" style="edgeLabel;html=1;align=center;verticalAlign=middle;resizable=0;points=[];" parent="5tDuQ4ynyZppxNNhZH8u-97" vertex="1" connectable="0">
          <mxGeometry x="-0.0769" y="1" relative="1" as="geometry">
            <mxPoint as="offset" />
          </mxGeometry>
        </mxCell>
        <mxCell id="5tDuQ4ynyZppxNNhZH8u-86" value="nginx tcp connction&amp;nbsp;" style="rounded=0;whiteSpace=wrap;html=1;" parent="1" vertex="1">
          <mxGeometry x="-130" y="3310" width="210" height="60" as="geometry" />
        </mxCell>
        <mxCell id="5tDuQ4ynyZppxNNhZH8u-87" value="gateway （http service）" style="rounded=0;whiteSpace=wrap;html=1;" parent="1" vertex="1">
          <mxGeometry x="290" y="3320" width="320" height="60" as="geometry" />
        </mxCell>
        <mxCell id="5tDuQ4ynyZppxNNhZH8u-88" value="gateway （http service）" style="rounded=0;whiteSpace=wrap;html=1;" parent="1" vertex="1">
          <mxGeometry x="290" y="3480" width="320" height="60" as="geometry" />
        </mxCell>
        <mxCell id="5tDuQ4ynyZppxNNhZH8u-90" value="man" style="text;html=1;align=center;verticalAlign=middle;resizable=0;points=[];autosize=1;strokeColor=none;fillColor=none;" parent="1" vertex="1">
          <mxGeometry x="95" y="3318" width="50" height="30" as="geometry" />
        </mxCell>
        <mxCell id="5tDuQ4ynyZppxNNhZH8u-100" style="edgeStyle=orthogonalEdgeStyle;rounded=0;orthogonalLoop=1;jettySize=auto;html=1;" parent="1" source="5tDuQ4ynyZppxNNhZH8u-92" target="5tDuQ4ynyZppxNNhZH8u-85" edge="1">
          <mxGeometry relative="1" as="geometry" />
        </mxCell>
        <mxCell id="5tDuQ4ynyZppxNNhZH8u-92" value="ad - tiktok-1&amp;nbsp;" style="rounded=0;whiteSpace=wrap;html=1;fillColor=#d5e8d4;strokeColor=none;" parent="1" vertex="1">
          <mxGeometry x="770" y="3180" width="180" height="40" as="geometry" />
        </mxCell>
        <mxCell id="5tDuQ4ynyZppxNNhZH8u-93" value="man" style="rounded=0;whiteSpace=wrap;html=1;fillColor=#d5e8d4;strokeColor=none;" parent="1" vertex="1">
          <mxGeometry x="120" y="2800" width="180" height="40" as="geometry" />
        </mxCell>
        <mxCell id="5tDuQ4ynyZppxNNhZH8u-94" value="living china Guandong PRovince" style="rounded=0;whiteSpace=wrap;html=1;fillColor=#d5e8d4;strokeColor=none;" parent="1" vertex="1">
          <mxGeometry x="110" y="2883" width="180" height="40" as="geometry" />
        </mxCell>
        <mxCell id="5tDuQ4ynyZppxNNhZH8u-95" value="month salary about 10K" style="rounded=0;whiteSpace=wrap;html=1;fillColor=#d5e8d4;strokeColor=none;" parent="1" vertex="1">
          <mxGeometry x="120" y="2990" width="180" height="40" as="geometry" />
        </mxCell>
        <mxCell id="5tDuQ4ynyZppxNNhZH8u-99" style="edgeStyle=orthogonalEdgeStyle;rounded=0;orthogonalLoop=1;jettySize=auto;html=1;exitX=1;exitY=0.5;exitDx=0;exitDy=0;entryX=1;entryY=0.25;entryDx=0;entryDy=0;" parent="1" source="5tDuQ4ynyZppxNNhZH8u-92" target="5tDuQ4ynyZppxNNhZH8u-92" edge="1">
          <mxGeometry relative="1" as="geometry" />
        </mxCell>
        <mxCell id="5tDuQ4ynyZppxNNhZH8u-101" value="" style="rounded=0;whiteSpace=wrap;html=1;" parent="1" vertex="1">
          <mxGeometry x="475" y="2903" width="160" height="40" as="geometry" />
        </mxCell>
        <mxCell id="5tDuQ4ynyZppxNNhZH8u-102" value="prometheus" style="rounded=0;whiteSpace=wrap;html=1;" parent="1" vertex="1">
          <mxGeometry x="520" y="869" width="120" height="60" as="geometry" />
        </mxCell>
        <mxCell id="5tDuQ4ynyZppxNNhZH8u-104" style="edgeStyle=orthogonalEdgeStyle;rounded=0;orthogonalLoop=1;jettySize=auto;html=1;entryX=0.5;entryY=0;entryDx=0;entryDy=0;" parent="1" source="5tDuQ4ynyZppxNNhZH8u-103" target="5tDuQ4ynyZppxNNhZH8u-102" edge="1">
          <mxGeometry relative="1" as="geometry" />
        </mxCell>
        <mxCell id="5tDuQ4ynyZppxNNhZH8u-103" value="AOP" style="rounded=0;whiteSpace=wrap;html=1;" parent="1" vertex="1">
          <mxGeometry x="25" y="954" width="75" height="149" as="geometry" />
        </mxCell>
        <mxCell id="5tDuQ4ynyZppxNNhZH8u-105" value="TS - database" style="rounded=0;whiteSpace=wrap;html=1;" parent="1" vertex="1">
          <mxGeometry x="770" y="860" width="120" height="60" as="geometry" />
        </mxCell>
        <mxCell id="5tDuQ4ynyZppxNNhZH8u-107" style="edgeStyle=orthogonalEdgeStyle;rounded=0;orthogonalLoop=1;jettySize=auto;html=1;entryX=-0.007;entryY=0.627;entryDx=0;entryDy=0;entryPerimeter=0;" parent="1" source="5tDuQ4ynyZppxNNhZH8u-102" target="5tDuQ4ynyZppxNNhZH8u-105" edge="1">
          <mxGeometry relative="1" as="geometry" />
        </mxCell>
      </root>
    </mxGraphModel>
  </diagram>
  <diagram id="ljQ24HcGyxRMVVpthTWY" name="OCPX">
    <mxGraphModel dx="1260" dy="725" grid="0" gridSize="10" guides="1" tooltips="1" connect="1" arrows="1" fold="1" page="1" pageScale="1" pageWidth="827" pageHeight="1169" math="0" shadow="0">
      <root>
        <mxCell id="0" />
        <mxCell id="1" parent="0" />
        <mxCell id="zDfeRGrvABBpEErc0hMa-8" value="实验" style="rounded=0;whiteSpace=wrap;html=1;dashed=1;strokeColor=none;fillColor=#e51400;fontColor=#ffffff;" vertex="1" parent="1">
          <mxGeometry x="181" y="255" width="40" height="220" as="geometry" />
        </mxCell>
        <mxCell id="zDfeRGrvABBpEErc0hMa-4" style="edgeStyle=orthogonalEdgeStyle;rounded=0;orthogonalLoop=1;jettySize=auto;html=1;entryX=0;entryY=0.5;entryDx=0;entryDy=0;" edge="1" parent="1" source="zDfeRGrvABBpEErc0hMa-1" target="zDfeRGrvABBpEErc0hMa-2">
          <mxGeometry relative="1" as="geometry" />
        </mxCell>
        <mxCell id="zDfeRGrvABBpEErc0hMa-5" style="edgeStyle=orthogonalEdgeStyle;rounded=0;orthogonalLoop=1;jettySize=auto;html=1;entryX=0;entryY=0.5;entryDx=0;entryDy=0;" edge="1" parent="1" source="zDfeRGrvABBpEErc0hMa-1" target="zDfeRGrvABBpEErc0hMa-3">
          <mxGeometry relative="1" as="geometry" />
        </mxCell>
        <mxCell id="zDfeRGrvABBpEErc0hMa-6" value="新增传递additionalTypes" style="edgeLabel;html=1;align=center;verticalAlign=middle;resizable=0;points=[];" vertex="1" connectable="0" parent="zDfeRGrvABBpEErc0hMa-5">
          <mxGeometry x="-0.3619" y="1" relative="1" as="geometry">
            <mxPoint x="50" y="1" as="offset" />
          </mxGeometry>
        </mxCell>
        <mxCell id="zDfeRGrvABBpEErc0hMa-1" value="performance-dsp(联盟)" style="rounded=0;whiteSpace=wrap;html=1;fillColor=#60a917;fontColor=#ffffff;strokeColor=none;" vertex="1" parent="1">
          <mxGeometry x="11" y="335" width="120" height="60" as="geometry" />
        </mxCell>
        <mxCell id="zDfeRGrvABBpEErc0hMa-2" value="Ranker(新架构)" style="rounded=0;whiteSpace=wrap;html=1;fillColor=#dae8fc;strokeColor=none;" vertex="1" parent="1">
          <mxGeometry x="501" y="265" width="230" height="60" as="geometry" />
        </mxCell>
        <mxCell id="zDfeRGrvABBpEErc0hMa-3" value="Ranker(老架构)" style="rounded=0;whiteSpace=wrap;html=1;fillColor=#e1d5e7;strokeColor=none;" vertex="1" parent="1">
          <mxGeometry x="501" y="405" width="230" height="60" as="geometry" />
        </mxCell>
        <mxCell id="zDfeRGrvABBpEErc0hMa-9" value="理想中实验" style="text;html=1;align=center;verticalAlign=middle;whiteSpace=wrap;rounded=0;" vertex="1" parent="1">
          <mxGeometry x="161" y="225" width="70" height="30" as="geometry" />
        </mxCell>
        <mxCell id="zDfeRGrvABBpEErc0hMa-10" value="实验" style="rounded=0;whiteSpace=wrap;html=1;dashed=1;strokeColor=none;fillColor=#60a917;fontColor=#ffffff;" vertex="1" parent="1">
          <mxGeometry x="391" y="215" width="40" height="140" as="geometry" />
        </mxCell>
        <mxCell id="zDfeRGrvABBpEErc0hMa-11" value="实际中实验" style="text;html=1;align=center;verticalAlign=middle;whiteSpace=wrap;rounded=0;" vertex="1" parent="1">
          <mxGeometry x="375" y="185" width="70" height="30" as="geometry" />
        </mxCell>
        <mxCell id="zDfeRGrvABBpEErc0hMa-12" value="set pltvRequire to true" style="rounded=0;whiteSpace=wrap;html=1;fillColor=#e51400;fontColor=#ffffff;strokeColor=none;" vertex="1" parent="1">
          <mxGeometry x="701" y="255" width="190" height="250" as="geometry" />
        </mxCell>
        <mxCell id="zDfeRGrvABBpEErc0hMa-13" value="问题出现的逻辑" style="text;html=1;align=center;verticalAlign=middle;whiteSpace=wrap;rounded=0;" vertex="1" parent="1">
          <mxGeometry x="711" y="215" width="150" height="30" as="geometry" />
        </mxCell>
      </root>
    </mxGraphModel>
  </diagram>
  <diagram id="P4TTij54b9woqBO9ZIzF" name="Disruptor">
    <mxGraphModel dx="1260" dy="725" grid="0" gridSize="10" guides="0" tooltips="1" connect="1" arrows="1" fold="1" page="1" pageScale="1" pageWidth="827" pageHeight="1169" math="0" shadow="0">
      <root>
        <mxCell id="0" />
        <mxCell id="1" parent="0" />
        <mxCell id="WHkVxoKTZ2tU8kQTVzWH-1" value="0" style="rounded=0;whiteSpace=wrap;html=1;strokeWidth=2;fillColor=#d5e8d4;strokeColor=#82b366;" parent="1" vertex="1">
          <mxGeometry x="200" y="220" width="70" height="30" as="geometry" />
        </mxCell>
        <mxCell id="WHkVxoKTZ2tU8kQTVzWH-2" value="1" style="rounded=0;whiteSpace=wrap;html=1;strokeWidth=2;fillColor=#d5e8d4;strokeColor=#82b366;" parent="1" vertex="1">
          <mxGeometry x="270" y="220" width="70" height="30" as="geometry" />
        </mxCell>
        <mxCell id="WHkVxoKTZ2tU8kQTVzWH-3" value="2" style="rounded=0;whiteSpace=wrap;html=1;strokeWidth=2;fillColor=#d5e8d4;strokeColor=#82b366;" parent="1" vertex="1">
          <mxGeometry x="340" y="220" width="70" height="30" as="geometry" />
        </mxCell>
        <mxCell id="WHkVxoKTZ2tU8kQTVzWH-4" value="3" style="rounded=0;whiteSpace=wrap;html=1;strokeWidth=2;fillColor=#d5e8d4;strokeColor=#82b366;" parent="1" vertex="1">
          <mxGeometry x="410" y="220" width="70" height="30" as="geometry" />
        </mxCell>
        <mxCell id="WHkVxoKTZ2tU8kQTVzWH-5" value="ValueNoPadding[8]" style="text;html=1;align=center;verticalAlign=middle;whiteSpace=wrap;rounded=0;fontSize=15;fontStyle=1;strokeColor=none;dashed=1;fillColor=none;" parent="1" vertex="1">
          <mxGeometry x="40" y="218" width="155" height="30" as="geometry" />
        </mxCell>
        <mxCell id="EeBIcO8hsg9Btfq77LNh-1" value="4" style="rounded=0;whiteSpace=wrap;html=1;strokeWidth=2;fillColor=#d5e8d4;strokeColor=#82b366;" vertex="1" parent="1">
          <mxGeometry x="480" y="220" width="70" height="30" as="geometry" />
        </mxCell>
        <mxCell id="EeBIcO8hsg9Btfq77LNh-2" value="5" style="rounded=0;whiteSpace=wrap;html=1;strokeWidth=2;fillColor=#d5e8d4;strokeColor=#82b366;" vertex="1" parent="1">
          <mxGeometry x="550" y="220" width="70" height="30" as="geometry" />
        </mxCell>
        <mxCell id="EeBIcO8hsg9Btfq77LNh-3" value="6" style="rounded=0;whiteSpace=wrap;html=1;strokeWidth=2;fillColor=#d5e8d4;strokeColor=#82b366;" vertex="1" parent="1">
          <mxGeometry x="620" y="220" width="70" height="30" as="geometry" />
        </mxCell>
        <mxCell id="EeBIcO8hsg9Btfq77LNh-4" value="7" style="rounded=0;whiteSpace=wrap;html=1;strokeWidth=2;fillColor=#d5e8d4;strokeColor=#82b366;" vertex="1" parent="1">
          <mxGeometry x="690" y="220" width="70" height="30" as="geometry" />
        </mxCell>
      </root>
    </mxGraphModel>
  </diagram>
</mxfile>
